<?xml version="1.0" encoding="UTF-8"?>
<svg width="123px" height="27px" viewBox="0 0 123 27" version="1.1" xmlns="http://www.w3.org/2000/svg" xmlns:xlink="http://www.w3.org/1999/xlink">
    <!-- Generator: Sketch 52.4 (67378) - http://www.bohemiancoding.com/sketch -->
    <title>LOGO</title>
    <desc>Created with Sketch.</desc>
    <defs>
        <polygon id="path-1" points="0.0001 0.3 20.7041 0.3 20.7041 27 0.0001 27"></polygon>
    </defs>
    <g id="投资者关系" stroke="none" stroke-width="1" fill="none" fill-rule="evenodd">
        <g id="Desktop-HD" transform="translate(-40.000000, -22.000000)">
            <g id="导航栏-固定">
                <g id="LOGO" transform="translate(40.000000, 21.000000)">
                    <g id="Group-3" transform="translate(0.000000, 0.700000)">
                        <mask id="mask-2" fill="white">
                            <use xlink:href="#path-1"></use>
                        </mask>
                        <g id="Clip-2"></g>
                        <path d="M18.9651,25.6172 C19.0701,23.2462 18.5961,17.4512 18.3331,14.2912 C18.0701,11.1352 18.1041,5.8002 15.4301,4.5762 C15.5981,4.5672 15.7671,4.5552 15.9351,4.5422 C16.2381,4.5172 16.4991,4.3002 16.4991,3.9782 C16.4991,3.6922 16.2401,3.3902 15.9351,3.4142 C15.6481,3.4372 15.1521,3.5092 14.8081,3.3772 C14.6711,3.3252 14.5571,3.2422 14.4901,3.1082 C14.2411,2.6082 14.8421,2.2342 15.2571,2.1492 C15.2821,2.1432 15.5901,2.0522 15.6301,2.0322 C16.0781,1.7962 15.9921,0.9642 15.3671,0.9662 C14.7701,0.9672 14.1321,1.0332 13.6971,1.4932 C13.3061,1.9082 13.1311,2.6252 13.1211,3.1842 C13.1151,3.5012 13.1701,3.7522 13.2721,3.9492 C12.0321,3.7062 10.0881,3.6882 7.4931,3.8072 C7.9241,3.5502 8.2051,3.2062 7.8481,2.7672 C7.6331,2.5022 7.3271,2.3352 6.9911,2.2512 C6.7841,2.2002 6.5661,2.1802 6.3521,2.1882 C6.4471,1.9702 6.7071,1.3722 6.7361,1.2902 C6.8271,1.0372 6.8611,0.7802 6.6651,0.5412 C6.0361,-0.2228 4.3311,0.9922 4.4061,1.8812 C4.4551,2.4552 4.7181,4.0862 5.4791,4.2282 C5.1691,4.3192 3.5291,4.5452 3.2661,7.1262 C3.0031,9.7072 2.0541,13.6592 1.4751,25.8812 C0.5791,25.8812 0.0001,25.9862 0.0001,26.4602 C0.0001,26.9342 0.3691,26.9872 3.1611,26.9872 C5.9531,26.9872 6.7431,27.3032 6.9541,24.8272 C6.9541,24.8272 7.0071,22.9832 8.4821,22.9832 C9.3921,22.9832 10.3011,22.9822 11.2121,22.9832 C11.8601,22.9842 12.6371,23.0072 13.1801,23.4112 C14.5271,24.4172 12.7391,26.7232 15.0671,26.7232 C15.7501,26.7232 20.7041,27.0072 20.7041,26.2492 C20.7041,25.7222 20.2821,25.7222 18.9651,25.6172" id="Fill-1" fill="#E50012" mask="url(#mask-2)"></path>
                    </g>
                    <path d="M15.5637,13.8211 C15.4107,13.5501 14.9597,12.9191 13.9347,12.4311 C13.2177,12.0901 12.2237,11.8191 10.8437,11.7941 C9.6057,11.7711 8.5737,11.9751 7.7377,12.2641 C6.4007,12.7261 5.5667,13.4091 5.2127,13.7471 C5.0907,13.8641 5.0567,14.0411 5.1237,14.1961 C5.5367,15.1471 6.5087,17.4081 10.6637,17.4081 C14.6757,17.4081 15.4707,14.7461 15.6057,14.0951 C15.6257,14.0001 15.6107,13.9051 15.5637,13.8211" id="Fill-4" fill="#FFFFFF"></path>
                    <path d="M10.3518,16.6277 C12.9938,16.5977 13.6658,14.0247 13.9348,12.4307 C13.2178,12.0897 12.2238,11.8187 10.8438,11.7937 C9.6058,11.7717 8.5738,11.9747 7.7378,12.2637 C7.7198,13.9207 8.0328,16.6537 10.3518,16.6277" id="Fill-6" fill="#221714"></path>
                    <path d="M32.5364,22.0935 L32.1364,22.0935 C31.7574,22.0935 31.4634,21.7615 31.5104,21.3855 L31.6974,19.8615 L32.1994,15.3855 C32.2094,15.3195 32.2834,15.2815 32.3434,15.2815 C32.4024,15.2815 32.4794,15.3205 32.4874,15.3855 L32.9894,19.8615 L33.1634,21.3905 C33.2064,21.7645 32.9134,22.0935 32.5364,22.0935 M36.5144,25.9505 L34.6344,13.5365 C34.5564,12.9685 34.2624,12.7725 33.8114,12.7725 L30.8744,12.7725 C30.4244,12.7725 30.1304,12.9685 30.0524,13.5365 L28.1724,25.9505 C28.0744,26.5385 28.3684,26.9495 28.9554,26.9495 L30.1304,26.9495 C30.5024,26.9495 30.8744,26.7925 30.9334,26.2445 L31.0964,24.8875 C31.1374,24.5445 31.4284,24.2865 31.7734,24.2865 L32.9574,24.2865 C33.2774,24.2865 33.5464,24.5255 33.5844,24.8425 L33.7534,26.2445 C33.8114,26.7925 34.1834,26.9495 34.5564,26.9495 L35.7304,26.9495 C36.3184,26.9495 36.6124,26.5385 36.5144,25.9505" id="Fill-8" fill="#221714"></path>
                    <path d="M47.6638,24.7566 C48.3098,24.7566 48.6428,24.3646 48.6428,23.8366 L48.6428,21.8776 C48.6428,21.3496 48.3098,20.9576 47.6638,20.9576 L47.2808,20.9576 C47.0598,20.9576 46.8808,21.1366 46.8808,21.3576 L46.8808,24.3566 C46.8808,24.5776 47.0598,24.7566 47.2808,24.7566 L47.6638,24.7566 Z M47.6638,18.7646 C48.3098,18.7646 48.6428,18.3726 48.6428,17.8446 L48.6428,15.8866 C48.6428,15.3576 48.3098,14.9656 47.6638,14.9656 L47.2808,14.9656 C47.0598,14.9656 46.8808,15.1446 46.8808,15.3656 L46.8808,18.3646 C46.8808,18.5856 47.0598,18.7646 47.2808,18.7646 L47.6638,18.7646 Z M44.9988,26.9496 C44.4378,26.9496 43.9828,26.4946 43.9828,25.9326 L43.9828,13.7896 C43.9828,13.2286 44.4378,12.7726 44.9988,12.7726 L47.6638,12.7726 C50.1898,12.7726 51.5408,13.7516 51.5408,15.8866 L51.5408,16.9636 C51.5408,18.4116 50.9138,19.3326 49.7398,19.7636 L49.7398,19.9586 C50.9138,20.4096 51.5408,21.3296 51.5408,22.7586 L51.5408,23.8366 C51.5408,25.9706 50.1898,26.9496 47.6638,26.9496 L44.9988,26.9496 Z" id="Fill-10" fill="#221714"></path>
                    <path d="M66.7634,17.5369 C66.7634,18.1069 66.3014,18.5689 65.7314,18.5689 L64.8974,18.5689 C64.3274,18.5689 63.8654,18.1069 63.8654,17.5369 L63.8654,15.7879 C63.8654,15.2599 63.5324,14.8679 62.8864,14.8679 C62.2404,14.8679 61.9074,15.2599 61.9074,15.7879 L61.9074,23.9339 C61.9074,24.4629 62.2404,24.8539 62.8864,24.8539 C63.5324,24.8539 63.8654,24.4629 63.8654,23.9339 L63.8654,22.1849 C63.8654,21.6159 64.3274,21.1539 64.8974,21.1539 L65.7314,21.1539 C66.3014,21.1539 66.7634,21.6159 66.7634,22.1849 L66.7634,23.9339 C66.7634,26.0679 65.4124,27.0479 62.8864,27.0479 C60.3604,27.0479 59.0094,26.0679 59.0094,23.9339 L59.0094,15.7879 C59.0094,13.6539 60.3604,12.6749 62.8864,12.6749 C65.4124,12.6749 66.7634,13.6539 66.7634,15.7879 L66.7634,17.5369 Z" id="Fill-12" fill="#221714"></path>
                    <path d="M77.1296,18.7254 L77.3256,18.7254 L79.5776,13.2234 C79.6946,12.9294 79.9686,12.7724 80.3216,12.7724 L81.6526,12.7724 C82.4946,12.7724 82.5346,13.5754 82.3976,13.9084 L79.9376,19.7044 C79.8946,19.8054 79.8946,19.9174 79.9376,20.0174 L82.3976,25.8134 C82.5346,26.1464 82.4946,26.9494 81.6526,26.9494 L80.3216,26.9494 C79.9686,26.9494 79.6946,26.7924 79.5776,26.4994 L77.3256,20.9964 L77.1296,20.9964 L77.1296,25.9334 C77.1296,26.4944 76.6746,26.9494 76.1126,26.9494 L75.2486,26.9494 C74.6876,26.9494 74.2316,26.4944 74.2316,25.9334 L74.2316,13.7894 C74.2316,13.2284 74.6876,12.7724 75.2486,12.7724 L76.1126,12.7724 C76.6746,12.7724 77.1296,13.2284 77.1296,13.7894 L77.1296,18.7254 Z" id="Fill-14" fill="#221714"></path>
                    <path d="M92.8054,25.9329 C92.8054,26.4949 92.3494,26.9499 91.7884,26.9499 L90.9244,26.9499 C90.3624,26.9499 89.9074,26.4949 89.9074,25.9329 L89.9074,13.7899 C89.9074,13.2279 90.3624,12.7729 90.9244,12.7729 L91.7884,12.7729 C92.3494,12.7729 92.8054,13.2279 92.8054,13.7899 L92.8054,25.9329 Z" id="Fill-16" fill="#221714"></path>
                    <path d="M104.1326,24.7566 C104.7786,24.7566 105.1116,24.3646 105.1116,23.8366 L105.1116,15.8866 C105.1116,15.3576 104.7786,14.9656 104.1326,14.9656 L103.5526,14.9656 C103.3326,14.9656 103.1536,15.1446 103.1536,15.3656 L103.1536,24.3566 C103.1536,24.5776 103.3326,24.7566 103.5526,24.7566 L104.1326,24.7566 Z M101.2726,26.9496 C100.7106,26.9496 100.2556,26.4946 100.2556,25.9326 L100.2556,13.7896 C100.2556,13.2286 100.7106,12.7726 101.2726,12.7726 L104.1326,12.7726 C106.6586,12.7726 108.0096,13.7516 108.0096,15.8866 L108.0096,23.8366 C108.0096,25.9706 106.6586,26.9496 104.1326,26.9496 L101.2726,26.9496 Z" id="Fill-18" fill="#221714"></path>
                    <path d="M118.6858,18.0008 L120.9768,19.9398 C122.3868,21.1338 122.5818,22.1128 122.5818,23.9338 C122.5818,26.0678 121.2308,27.0478 118.7058,27.0478 C116.1798,27.0478 114.8278,26.0678 114.8278,23.9338 L114.8278,22.7578 C114.8278,22.1958 115.2838,21.7408 115.8448,21.7408 L116.7088,21.7408 C117.2708,21.7408 117.7268,22.1958 117.7268,22.7578 L117.7268,23.9338 C117.7268,24.4628 118.0588,24.8548 118.7058,24.8548 C119.3518,24.8548 119.6848,24.4628 119.6848,23.9338 C119.6848,22.9158 119.5278,22.3868 118.7248,21.7218 L116.4338,19.7828 C115.0238,18.5878 114.8278,17.6088 114.8278,15.7888 C114.8278,13.6538 116.1798,12.6748 118.7058,12.6748 C121.2308,12.6748 122.5818,13.6538 122.5818,15.7888 L122.5818,16.9648 C122.5818,17.5258 122.1268,17.9818 121.5648,17.9818 L120.7008,17.9818 C120.1398,17.9818 119.6848,17.5258 119.6848,16.9648 L119.6848,15.7888 C119.6848,15.2598 119.3518,14.8678 118.7058,14.8678 C118.0588,14.8678 117.7268,15.2598 117.7268,15.7888 C117.7268,16.8068 117.8828,17.3348 118.6858,18.0008" id="Fill-20" fill="#221714"></path>
                </g>
            </g>
        </g>
    </g>
</svg>