<svg xmlns="http://www.w3.org/2000/svg" viewBox="0 0 1024 1024" version="1.1"><path d="M482.3 836.1a42.7 42.7 0 0 0 59.3 0l181.5-175.4a285.8 285.8 0 0 0 81.7-147.8 279.7 279.7 0 0 0-17-166.7 291 291 0 0 0-110-129.5A306.1 306.1 0 0 0 512 167.9a306.1 306.1 0 0 0-165.9 48.6A291 291 0 0 0 236.1 346a279.7 279.7 0 0 0-17 166.8 285.8 285.8 0 0 0 81.7 147.8l181.5 175.4z m59.3 116.6a42.7 42.7 0 0 1-59.3 0L240.5 718.9a367.4 367.4 0 0 1-105.1-190 359.6 359.6 0 0 1 21.8-214.4A374.2 374.2 0 0 1 298.7 147.9 393.5 393.5 0 0 1 512 85.3c75.9 0 150.2 21.8 213.3 62.5a374.2 374.2 0 0 1 141.4 166.6c29.1 67.8 36.7 142.4 21.8 214.4a367.4 367.4 0 0 1-105.1 190l-241.9 233.8zM512 538.9c22.6 0 44.4-8.7 60.3-24.1A81.1 81.1 0 0 0 597.3 456.4a81.1 81.1 0 0 0-25-58.3A86.9 86.9 0 0 0 512 374c-22.6 0-44.4 8.7-60.3 24.2A81.1 81.1 0 0 0 426.7 456.4a81.1 81.1 0 0 0 25 58.3c16 15.5 37.7 24.1 60.3 24.1z m0 82.5a173.7 173.7 0 0 1-120.7-48.3A162.2 162.2 0 0 1 341.3 456.4c0-43.7 18-85.7 50-116.6A173.7 173.7 0 0 1 512 291.5c45.2 0 88.7 17.4 120.7 48.3A162.2 162.2 0 0 1 682.7 456.4a162.2 162.2 0 0 1-50 116.7A173.7 173.7 0 0 1 512 621.4z" fill="#333333" p-id="912"></path></svg>