<svg xmlns="http://www.w3.org/2000/svg" viewBox="0 0 1024 1024" version="1.1"><path d="M397.8 437.6A170.7 170.7 0 1 0 128 298.7c0 97.6 53.2 240.2 150.9 360.3 95.1 116.8 236.4 217.4 421.4 235.2a170.7 170.7 0 1 0-113.2-269c-48.9-19.2-93-53.5-128.4-93.6A372.7 372.7 0 0 1 402.5 448a271.2 271.2 0 0 1-4.7-10.4zM384 298.7a85.3 85.3 0 1 1-170.7 0 85.3 85.3 0 0 1 170.7 0z m-65.9 169.6c2.3 5.5 4.8 11.1 7.4 16.6 16.5 34.4 40.1 70.1 69.1 103.1 41.6 47.2 96.7 91.2 161.3 116.7a173 173 0 0 0 5.1 67c-87.9-37.5-160.1-98-215.9-166.6a667.2 667.2 0 0 1-88-140.8 171.1 171.1 0 0 0 61 4z m393 341.2a85.3 85.3 0 1 1 15.4 1.2 515.2 515.2 0 0 1-15.4-1.2z" fill="#333333" p-id="680"></path></svg>