<svg xmlns="http://www.w3.org/2000/svg" viewBox="0 0 1024 1024" version="1.1"><path d="M652.5 823.2a42.6 42.6 0 0 1 38.6-11.7l150.6 30.1-30.2-150.6a42.6 42.6 0 0 1 11.7-38.6 341.3 341.3 0 1 0-170.7 170.7z m39.9 75.6A425 425 0 0 1 512 938.7C276.4 938.7 85.3 747.6 85.3 512S276.4 85.3 512 85.3s426.7 191 426.7 426.7c0 64.4-14.3 125.6-39.9 180.4l32.8 163.9a64 64 0 0 1-75.3 75.3l-163.8-32.8z m-139.1-587.9A154.5 154.5 0 0 0 512 337.1 152.9 152.9 0 0 0 411 298.7c-41.6 0-81.1 17.1-110.1 46.9A160.4 160.4 0 0 0 256 457.2a160.4 160.4 0 0 0 44.9 111.6l21.6 22.3 158.8 163.8a42.7 42.7 0 0 0 61.3 0l158.8-163.8 21.6-22.3c14.3-14.8 25.6-32.3 33.3-51.4a161.7 161.7 0 0 0 0-120.5 158.8 158.8 0 0 0-33.3-51.4 154.8 154.8 0 0 0-50.3-34.7 151.9 151.9 0 0 0-119.5 0zM613 384c9 0 17.9 1.8 26.2 5.4 8.4 3.6 16 8.9 22.6 15.6 6.5 6.8 11.8 14.8 15.4 23.8a76.4 76.4 0 0 1 0 56.9c-3.6 9-8.8 17.1-15.4 23.8l-21.6 22.4-128.2 132.3-128.2-132.3-21.6-22.4A75.1 75.1 0 0 1 341.3 457.2c0-19.8 7.7-38.6 20.9-52.2 13.2-13.6 30.7-21 48.8-21 18 0 35.6 7.4 48.8 21l21.6 22.3a42.7 42.7 0 0 0 61.3 0l21.6-22.3c6.5-6.7 14.2-12 22.6-15.6A66.6 66.6 0 0 1 613 384z" fill="#333333" p-id="1066"></path></svg>