<svg xmlns="http://www.w3.org/2000/svg" viewBox="0 0 1024 1024" version="1.1"><path d="M85.3 512c0 235.6 191 426.7 426.7 426.7s426.7-191 426.7-426.7S747.6 85.3 512 85.3 85.3 276.4 85.3 512z m668 241.4A341.3 341.3 0 1 1 270.6 270.6a341.3 341.3 0 0 1 482.7 482.8zM353.8 353.8a42.7 42.7 0 0 1 60.3 0L512 451.7l97.8-97.8a42.7 42.7 0 1 1 60.3 60.3L572.3 512l97.8 97.8a42.7 42.7 0 0 1-60.3 60.3L512 572.3l-97.8 97.8a42.7 42.7 0 0 1-60.3-60.3L451.7 512 353.8 414.2a42.7 42.7 0 0 1 0-60.3z" fill="#333333" p-id="768"></path></svg>