<svg xmlns="http://www.w3.org/2000/svg" viewBox="0 0 1024 1024" version="1.1"><path d="M405.3 85.3a149.3 149.3 0 0 0-135 213.3H213.3a128 128 0 0 0-42.7 248.7V810.7a128 128 0 0 0 128 128h426.7a128 128 0 0 0 128-128v-263.3A128 128 0 0 0 810.7 298.7h-57A149.3 149.3 0 0 0 512 130.1 148.9 148.9 0 0 0 405.3 85.3zM554.7 384h256a42.7 42.7 0 1 1 0 85.3h-256V384z m-85.3-85.3H405.3A64 64 0 1 1 469.3 234.7V298.7z m0 85.3v85.3H213.3a42.7 42.7 0 1 1 0-85.3h256z m0 170.7v298.7H298.7a42.7 42.7 0 0 1-42.7-42.7v-256h213.3z m85.3 298.7v-298.7h213.3v256a42.7 42.7 0 0 1-42.7 42.7h-170.7z m0-554.7V234.7A64 64 0 1 1 618.7 298.7H554.7z" fill="#333333" p-id="724"></path></svg>