<svg xmlns="http://www.w3.org/2000/svg" viewBox="0 0 1024 1024" version="1.1"><path d="M213.3 213.3a42.7 42.7 0 0 0-42.7 42.7v97.7a170.7 170.7 0 0 1 0 316.5V768a42.7 42.7 0 0 0 42.7 42.7h597.3a42.7 42.7 0 0 0 42.7-42.7v-97.8a170.7 170.7 0 0 1 0-316.5V256a42.7 42.7 0 0 0-42.7-42.7H213.3zM85.3 256a128 128 0 0 1 128-128h597.3a128 128 0 0 1 128 128v129.7a42.7 42.7 0 0 1-35.6 42.1 85.3 85.3 0 0 0 0 168.3 42.7 42.7 0 0 1 35.6 42.1V768a128 128 0 0 1-128 128H213.3a128 128 0 0 1-128-128v-129.8a42.7 42.7 0 0 1 35.6-42.1 85.3 85.3 0 0 0 0-168.3A42.7 42.7 0 0 1 85.3 385.7V256z m298.7 170.7a42.7 42.7 0 0 1 42.7-42.7h170.7a42.7 42.7 0 1 1 0 85.3h-170.7a42.7 42.7 0 0 1-42.7-42.7z m42.7 128a42.7 42.7 0 1 0 0 85.3h170.7a42.7 42.7 0 1 0 0-85.3h-170.7z" fill="#333333" p-id="989"></path></svg>