<svg xmlns="http://www.w3.org/2000/svg" viewBox="0 0 1024 1024" version="1.1"><path d="M682.7 341.3a170.7 170.7 0 1 1-341.3 0 170.7 170.7 0 0 1 341.3 0z m-18.9 206.2a256 256 0 1 0-303.5 0A341.3 341.3 0 0 0 170.7 853.3a42.7 42.7 0 1 0 85.3 0v-5.6c2.3-138 80.4-228.9 207.4-247l-75.3 161.5a42.7 42.7 0 0 0 10.9 50.4l85.3 73.1a42.7 42.7 0 0 0 55.6 0l85.3-73.1a42.7 42.7 0 0 0 10.9-50.4l-75.3-161.4C689.1 619.3 768 713.3 768 853.3a42.7 42.7 0 1 0 85.3 0v-5.6a341.3 341.3 0 0 0-189.6-300.2z m-184.7 221.4L512 698.2l33 70.7-33 28.2-33-28.2z" fill="#333333" p-id="1121"></path></svg>