<svg xmlns="http://www.w3.org/2000/svg" viewBox="0 0 1024 1024" version="1.1"><path d="M263.6 85.3a128 128 0 0 0-111.9 65.8L68.4 301.1C21.5 385.5 54.6 484.3 128 529.6V682.7a213.3 213.3 0 0 0 213.3 213.3h341.3a213.3 213.3 0 0 0 213.3-213.3v-153.1c73.4-45.4 106.5-144.1 59.6-228.5l-83.3-149.9A128 128 0 0 0 760.4 85.3H263.6zM810.7 554.6V682.7a128 128 0 0 1-128 128H341.3a128 128 0 0 1-128-128v-128l4.2 0H256a170.2 170.2 0 0 0 128-57.8A170.2 170.2 0 0 0 512 554.7a170.2 170.2 0 0 0 128-57.8A170.2 170.2 0 0 0 768 554.7h38.4l4.2-0zM512 469.3a85.3 85.3 0 0 1-85.3-85.3 42.7 42.7 0 1 0-85.3 0 85.3 85.3 0 0 1-85.3 85.3h-38.4c-65.1 0-106.2-69.9-74.6-126.8l83.3-150A42.7 42.7 0 0 1 263.6 170.7h496.9a42.7 42.7 0 0 1 37.3 21.9L881.1 342.6C912.6 399.4 871.5 469.3 806.4 469.3H768a85.3 85.3 0 0 1-85.3-85.3 42.7 42.7 0 1 0-85.3 0 85.3 85.3 0 0 1-85.3 85.3z" fill="#333333" p-id="570"></path></svg>