<svg xmlns="http://www.w3.org/2000/svg" viewBox="0 0 1024 1024" version="1.1"><path d="M72.8 333.5C170.4 93.4 444.2-22.2 684.4 75.3c240.1 97.6 355.7 371.4 258.2 611.6a469.4 469.4 0 0 1-409.2 292.1 41.1 41.1 0 0 1-8.1 0.8H86.6a41 41 0 0 1-37.1-69.3l162.2-162.2a41 41 0 0 1 57.9 0l0.1 0.1a40.9 40.9 0 0 1 0 57.9l-91.4 91.5h329.4v-0.3a387.4 387.4 0 0 0 358.7-241.5c80.5-198.1-14.9-423.9-213-504.4-198.1-80.5-423.9 14.9-504.4 213a385.2 385.2 0 0 0-19.5 228.9 40.9 40.9 0 1 1-78.5 23 462.8 462.8 0 0 1 21.8-283z m484.6 105.2h74.9a41 41 0 0 1-0.1 82h-92.3v57.3h92.3a41 41 0 1 1 0 82h-92.3v59.3a41 41 0 0 1-82 0v-59.3H365.5a41 41 0 1 1 0-82h92.4v-57.3H365.6a41 41 0 1 1 0-82h77L336.1 332.3a41 41 0 1 1 57.9-57.9l106 105.9L605.9 274.4a40.9 40.9 0 1 1 57.9 57.9l-106.4 106.4z" fill="#333333" p-id="1110"></path></svg>