<svg xmlns="http://www.w3.org/2000/svg" viewBox="0 0 1024 1024" version="1.1"><path d="M85.3 512c0 235.6 191 426.7 426.7 426.7s426.7-191 426.7-426.7S747.6 85.3 512 85.3 85.3 276.4 85.3 512z m668 241.4A341.3 341.3 0 1 1 270.6 270.6a341.3 341.3 0 0 1 482.7 482.8zM405.3 341.3a42.7 42.7 0 0 0-33.3 16l-85.3 106.7a42.7 42.7 0 0 0 3.1 56.8l192 192a42.7 42.7 0 0 0 60.3 0l192-192a42.7 42.7 0 0 0 3.2-56.8l-85.3-106.7A42.7 42.7 0 0 0 618.7 341.3h-213.3z m-28.2 146.2L425.8 426.7h172.4l48.6 60.8-134.8 134.8-134.8-134.8z" fill="#333333" p-id="967"></path></svg>