<svg xmlns="http://www.w3.org/2000/svg" viewBox="0 0 1024 1024" version="1.1"><path d="M405.3 128a42.7 42.7 0 0 0-32.8 15.4L278.7 256H213.3a128 128 0 0 0-128 128v384a128 128 0 0 0 128 128h597.3a128 128 0 0 0 128-128V384a128 128 0 0 0-128-128h-65.4l-93.9-112.6A42.7 42.7 0 0 0 618.7 128h-213.3zM331.4 326L425.3 213.3h173.4l93.9 112.6A42.7 42.7 0 0 0 725.3 341.3h85.3a42.7 42.7 0 0 1 42.7 42.7v384a42.7 42.7 0 0 1-42.7 42.7H213.3a42.7 42.7 0 0 1-42.7-42.7V384a42.7 42.7 0 0 1 42.7-42.7h85.3a42.7 42.7 0 0 0 32.8-15.4z m90 138.2A130.1 130.1 0 0 1 512 426.7a130.1 130.1 0 0 1 90.5 37.5A130.1 130.1 0 0 1 640 554.7a130.1 130.1 0 0 1-37.5 90.5A130.1 130.1 0 0 1 512 682.7a130.1 130.1 0 0 1-90.5-37.5A130.1 130.1 0 0 1 384 554.7c0-33.4 13.9-66.9 37.5-90.5zM512 341.3a213.3 213.3 0 1 0 0 426.7 213.3 213.3 0 0 0 0-426.7z" fill="#333333" p-id="901"></path></svg>