<svg xmlns="http://www.w3.org/2000/svg" viewBox="0 0 1024 1024" version="1.1"><path d="M682.7 170.7a42.7 42.7 0 0 1 42.7-42.7h128a85.3 85.3 0 0 1 85.3 85.3v128a42.7 42.7 0 1 1-85.3 0V298.7a85.3 85.3 0 0 0-85.3-85.3h-42.7a42.7 42.7 0 0 1-42.7-42.7zM85.3 213.3a85.3 85.3 0 0 1 85.3-85.3h128a42.7 42.7 0 0 1 0 85.3H256a85.3 85.3 0 0 0-85.3 85.3v42.7a42.7 42.7 0 0 1-85.3 0V213.3z m682.7 597.3a85.3 85.3 0 0 0 85.3-85.3v-42.7a42.7 42.7 0 1 1 85.3 0v128a85.3 85.3 0 0 1-85.3 85.3h-128a42.7 42.7 0 1 1 0-85.3h42.7zM170.7 725.3a85.3 85.3 0 0 0 85.3 85.3h42.7a42.7 42.7 0 1 1 0 85.3H170.7a85.3 85.3 0 0 1-85.3-85.3v-128a42.7 42.7 0 1 1 85.3 0v42.7z" fill="#333333" p-id="779"></path></svg>