<svg xmlns="http://www.w3.org/2000/svg" viewBox="0 0 1024 1024" version="1.1"><path d="M85.3 128a42.7 42.7 0 0 1 42.7-42.7h85.3a42.7 42.7 0 0 1 42.7 42.7v469.3a42.7 42.7 0 0 0 42.7 42.7h448.5a42.7 42.7 0 0 0 40.9-30.4l76.8-256A42.7 42.7 0 0 0 824 298.7H384a42.7 42.7 0 0 1 0-85.3h440a128 128 0 0 1 122.6 164.8l-76.8 256A128 128 0 0 1 747.2 725.3H298.7a128 128 0 0 1-128-128V170.7H128a42.7 42.7 0 0 1-42.7-42.7z m256 768a85.3 85.3 0 1 1-170.7 0 85.3 85.3 0 0 1 170.7 0z m426.7 85.3a85.3 85.3 0 1 0 0-170.7 85.3 85.3 0 0 0 0 170.7z" fill="#333333" p-id="1077"></path></svg>