<svg xmlns="http://www.w3.org/2000/svg" viewBox="0 0 1024 1024" version="1.1"><path d="M298.7 85.3a170.7 170.7 0 0 0-170.7 170.7v512a170.7 170.7 0 0 0 170.7 170.7h426.7a170.7 170.7 0 0 0 170.7-170.7v-341.3a42.7 42.7 0 1 0-85.3 0v341.3a85.3 85.3 0 0 1-85.3 85.3H298.7a85.3 85.3 0 0 1-85.3-85.3V256a85.3 85.3 0 0 1 85.3-85.3h308.1a42.7 42.7 0 1 0 0-85.3H298.7z m42.7 469.3a42.7 42.7 0 1 0 0 85.3h85.3a42.7 42.7 0 1 0 0-85.3H341.3z m-42.7 213.3a42.7 42.7 0 0 1 42.7-42.7h256a42.7 42.7 0 1 1 0 85.3H341.3a42.7 42.7 0 0 1-42.7-42.7z m293.5-369l-15 47.8 47.8-15 227.5-227.6a41.7 41.7 0 0 0-32.7-32.7L592.2 399zM811.6 85.3A127 127 0 0 1 938.7 212.4c0 16.9-6.7 33.1-18.7 45.1l-238.3 238.3a64 64 0 0 1-26.1 15.8l-91.7 28.9c-49.4 15.5-95.8-30.9-80.3-80.3l28.8-91.7c3.1-9.9 8.5-18.8 15.8-26.1l238.4-238.3c11.9-11.9 28.2-18.7 45.1-18.7z" fill="#333333" p-id="879"></path></svg>