<svg xmlns="http://www.w3.org/2000/svg" viewBox="0 0 1024 1024" version="1.1"><path d="M42.7 256a170.7 170.7 0 0 1 170.7-170.7h426.7a170.7 170.7 0 0 1 170.7 170.7v384h67A103.6 103.6 0 0 1 981.3 743.6V810.7a128 128 0 0 1-128 128H213.3a170.7 170.7 0 0 1-170.7-170.7V256z m682.7 554.7V256a85.3 85.3 0 0 0-85.3-85.3H213.3a85.3 85.3 0 0 0-85.3 85.3v512a85.3 85.3 0 0 0 85.3 85.3h512v-42.7z m128 42.7a42.7 42.7 0 0 0 42.7-42.7v-67a18.3 18.3 0 0 0-18.3-18.3H810.7v85.3a42.7 42.7 0 0 0 42.7 42.7zM213.3 384a42.7 42.7 0 0 1 42.7-42.7h341.3a42.7 42.7 0 1 1 0 85.3H256a42.7 42.7 0 0 1-42.7-42.7z m42.7 170.7a42.7 42.7 0 1 0 0 85.3h170.7a42.7 42.7 0 1 0 0-85.3H256z" fill="#333333" p-id="934"></path></svg>