<svg xmlns="http://www.w3.org/2000/svg" viewBox="0 0 1024 1024" version="1.1"><path d="M896 224h-32v-64c0-35.2-28.8-64-64-64H224c-35.2 0-64 28.8-64 64v64H128c-35.2 0-64 28.8-64 64v448c0 35.2 28.8 64 64 64h32v64c0 35.2 28.8 64 64 64h576c35.2 0 64-28.8 64-64v-64H896c35.2 0 64-28.8 64-64V288c0-35.2-28.8-64-64-64z m-736 512c-19.2 0-32-12.8-32-32v-384c0-19.2 12.8-32 32-32v448z m640 96c0 19.2-12.8 32-32 32H256c-16 0-32-12.8-32-32v-640c0-19.2 12.8-32 32-32h512c16 0 32 12.8 32 32v640z m96-128c0 19.2-12.8 32-32 32V288c16 0 32 12.8 32 32v384z m-483.2-256c38.4 0 76.8-22.4 89.6-57.6 16-35.2 6.4-76.8-19.2-105.6s-70.4-35.2-105.6-19.2c-35.2 12.8-57.6 51.2-57.6 89.6 0 51.2 41.6 92.8 92.8 92.8z m-19.2-118.4A29 29 0 0 1 416 320c16 0 32 12.8 32 28.8 0 16-12.8 32-28.8 35.2-16 0-32-12.8-35.2-28.8 0-9.6 3.2-19.2 9.6-25.6z m156.8 268.8l134.4-134.4c12.8-12.8 35.2-12.8 44.8 0 12.8 12.8 12.8 32 0 44.8l-160 160a29 29 0 0 1-22.4 9.6 29 29 0 0 1-22.4-9.6L457.6 601.6l-134.4 134.4c-12.8 12.8-32 12.8-44.8 0-12.8-12.8-12.8-32 0-44.8l160-160a29 29 0 0 1 22.4-9.6 29 29 0 0 1 22.4 9.6l67.2 67.2z" fill="#333333" p-id="1055"></path></svg>