<svg xmlns="http://www.w3.org/2000/svg" viewBox="0 0 1024 1024" version="1.1"><path d="M446.5 104.1C468.6 93.3 492.4 85.3 512 85.3c19.6 0 43.4 7.9 65.5 18.7 23.6 11.5 50.1 28.7 75.8 52.1 51.6 47.1 100.3 120.2 112 223 0.5 4.2 2.8 11.5 8.4 23 2.6 5.5 5.5 11 8.7 17l0.4 0.7c2.9 5.5 6.2 11.7 9.1 17.7 22.7 47.4 39.8 130 50.2 196.7 11.4 73.1-67.6 118.9-126.4 82.7l-58.6-36.1h-0.1l-0.2-0c-0.4-0-1.1 0-1.8 0.3-121.3 41.5-226.4 24.5-284.8 2.4A13.4 13.4 0 0 0 365 682.7a3.6 3.6 0 0 0-1.2 0.2l-63.1 38.8c-55.8 34.3-132.1-5.1-127.7-75.3 6.4-103.6 25.9-180.2 56.7-222.4 3.6-5 6.7-9 9.5-12.7 4.3-5.6 7.9-10.3 11.9-16.4 5.9-9.1 7.3-13.8 7.5-15.6 11.7-102.8 60.3-175.9 112-223a327 327 0 0 1 75.8-52.1z m-18.3 115.2c-38.7 35.3-75.7 90.2-84.7 169.6-2.5 21.6-12.5 39.9-20.9 52.7-5.5 8.4-12.9 18.1-18.3 25.3l-5.5 7.3c-15.4 21.1-33.7 75.3-40.2 173.4l60.6-37.3c26.8-16.5 57.4-15.4 81.4-6.4 42.3 16 126.9 30.9 227-3.3 23.7-8.1 51.2-6.4 74.5 7.9l55.1 33.9c-10.5-66-25.8-134-41.9-167.6-2.1-4.4-4.7-9.4-8-15.5-3.1-5.8-6.7-12.6-10.1-19.6-6.4-13.3-14.3-31.4-16.4-50.6-9-79.4-46-134.3-84.7-169.6a241.8 241.8 0 0 0-55.8-38.5 139.1 139.1 0 0 0-20.7-8.3A47.4 47.4 0 0 0 512 170.7c-0.6 0-3 0.4-7.4 1.7a139.1 139.1 0 0 0-20.7 8.3c-16.5 8-36.3 20.7-55.8 38.5zM512 469.3a42.7 42.7 0 1 1 0-85.3 42.7 42.7 0 0 1 0 85.3z m0 85.3a128 128 0 1 0 0-256 128 128 0 0 0 0 256z m-42.7 213.3a42.7 42.7 0 1 0-85.3 0v0.4c0 9 0 46.9 13.1 83.9 6.8 19.1 18 40.6 37.1 57.7 20 17.9 46.1 28.6 77.8 28.6 28.2 0 53-6.7 73.5-20.7 20.4-14 32.9-33 40.6-51.8 13.9-33.9 13.9-73.1 13.9-95.7V768a42.7 42.7 0 1 0-85.3 0c0 25.8-0.6 49-7.5 65.8a29.1 29.1 0 0 1-10 13.8c-3.5 2.5-10.7 5.8-25.2 5.8-11 0-16.9-3.2-20.9-6.8-4.9-4.4-9.7-11.9-13.6-22.8C469.5 801.2 469.3 775.7 469.3 768z" fill="#333333" p-id="857"></path></svg>