<svg xmlns="http://www.w3.org/2000/svg" viewBox="0 0 1024 1024" version="1.1"><path d="M437.7 87.7l-102.2 181.3-204 41.2c-65.2 13.1-91 92.5-46 141.4l140.9 153.2-23.9 206.8c-7.7 66 59.8 115.1 120.3 87.4L512 812.4l189.3 86.6c60.5 27.7 127.9-21.3 120.3-87.4l-23.9-206.8 140.8-153.2c45-48.9 19.2-128.3-46-141.4l-204-41.2-102.2-181.3c-32.6-57.9-116.1-57.9-148.7 0z m176.6 223.2a85.3 85.3 0 0 0 57.4 41.7l204.1 41.2-140.9 153.3a85.3 85.3 0 0 0-22 67.5l23.9 206.8-189.3-86.6a85.3 85.3 0 0 0-71 0l-189.3 86.6 23.9-206.8a85.3 85.3 0 0 0-21.9-67.5L148.3 393.8l204.1-41.2a85.3 85.3 0 0 0 57.4-41.7L512 129.6l102.2 181.3z" fill="#333333" p-id="835"></path></svg>