<svg xmlns="http://www.w3.org/2000/svg" viewBox="0 0 1024 1024" version="1.1"><path d="M798.2 76.5a42.7 42.7 0 1 0-60.3 60.3L814.3 213.3H640a213.3 213.3 0 0 0-213.3 213.3v213.3a42.7 42.7 0 1 0 85.3 0v-213.3a128 128 0 0 1 128-128h277.3a42.7 42.7 0 0 0 30.2-72.8l-149.3-149.3zM213.3 128a128 128 0 0 0-128 128v554.7a128 128 0 0 0 128 128h597.3a128 128 0 0 0 128-128v-341.3a42.7 42.7 0 1 0-85.3 0v341.3a42.7 42.7 0 0 1-42.7 42.7H213.3a42.7 42.7 0 0 1-42.7-42.7V256a42.7 42.7 0 0 1 42.7-42.7h128a42.7 42.7 0 0 0 0-85.3H213.3z" fill="#333333" p-id="1033"></path></svg>