<svg xmlns="http://www.w3.org/2000/svg" viewBox="0 0 1024 1024" version="1.1"><path d="M170.7 512a340.1 340.1 0 0 0 95.8 237.1 42.7 42.7 0 0 1 6.6 50.3L243.2 853.3h296.8a42.7 42.7 0 0 1 9-2A341.4 341.4 0 1 0 170.7 512z m768 0c0 214.7-158.6 392.4-365.1 422.2A42.6 42.6 0 0 1 554.7 938.7H170.7a42.7 42.7 0 0 1-37.3-63.4l50.3-90.7A425.1 425.1 0 0 1 85.3 512C85.3 276.4 276.4 85.3 512 85.3s426.7 191 426.7 426.7z m-554.7-0.2a64 64 0 1 1-128 0 64 64 0 0 1 128 0z m128 64.2a64 64 0 1 0 0-128 64 64 0 0 0 0 128z m192 0a64 64 0 1 0 0-128 64 64 0 0 0 0 128z" fill="#333333" p-id="956"></path></svg>