<svg xmlns="http://www.w3.org/2000/svg" viewBox="0 0 1024 1024" version="1.1"><path d="M170.7 512a341.3 341.3 0 1 1 682.7 0 42.7 42.7 0 0 0 72.8 30.2l64-64a42.7 42.7 0 0 0-60.3-60.3l-1.3 1.3C886.1 228.1 715.7 85.3 512 85.3 276.4 85.3 85.3 276.4 85.3 512s191 426.7 426.7 426.7a426.7 426.7 0 0 0 379.2-231 42.7 42.7 0 1 0-75.8-39.2A341.3 341.3 0 0 1 170.7 512z m243.5-200.8a42.7 42.7 0 0 0-60.3 60.3L451.7 469.3H426.7a42.7 42.7 0 1 0 0 85.3h42.7v42.7h-42.7a42.7 42.7 0 1 0 0 85.3h42.7v42.7a42.7 42.7 0 1 0 85.3 0v-42.7h42.7a42.7 42.7 0 1 0 0-85.3h-42.7v-42.7h42.7a42.7 42.7 0 1 0 0-85.3h-25l97.8-97.8a42.7 42.7 0 0 0-60.3-60.3L512 409 414.2 311.2z" fill="#333333" p-id="1088"></path></svg>