<svg xmlns="http://www.w3.org/2000/svg" viewBox="0 0 1024 1024" version="1.1"><path d="M883.5 55.2a42.7 42.7 0 0 0-60.3 0l-426 425.9a42.3 42.3 0 0 0-9.1 12.7l-84.9 169.8a42.7 42.7 0 0 0 48.6 60.5l170.1-42.5a42.6 42.6 0 0 0 22.2-13.3l426.2-468.9a42.7 42.7 0 0 0-1.4-58.9l-42.7-42.7-42.7-42.7z m-394.4 546.6l-68.1 17.1 40.7-81.5L853.3 145.6l12.5 12.5 13.9 13.9-390.6 429.7zM85.3 170.7a42.7 42.7 0 0 1 42.7-42.7h384a42.7 42.7 0 1 1 0 85.3H170.7v597.3h213.3a42.7 42.7 0 0 1 23.7 7.2L512 887.4l104.3-69.5A42.7 42.7 0 0 1 640 810.7h213.3v-298.7a42.7 42.7 0 1 1 85.3 0v341.3a42.7 42.7 0 0 1-42.7 42.7h-243.1l-117.2 78.2a42.7 42.7 0 0 1-47.4 0L371.1 896H128a42.7 42.7 0 0 1-42.7-42.7V170.7z" fill="#333333" p-id="1022"></path></svg>