<svg xmlns="http://www.w3.org/2000/svg" viewBox="0 0 1024 1024" version="1.1"><path d="M213.3 128a128 128 0 0 0-128 128v426.7a128 128 0 0 0 128 128h114.2a42.7 42.7 0 0 1 27.3 9.9l70 58.3A128 128 0 0 0 597.3 871.1l47.9-47.9a42.7 42.7 0 0 1 30.2-12.5H810.7a128 128 0 0 0 128-128V256a128 128 0 0 0-128-128H213.3zM170.7 256a42.7 42.7 0 0 1 42.7-42.7h597.3a42.7 42.7 0 0 1 42.7 42.7v426.7a42.7 42.7 0 0 1-42.7 42.7h-135.3a128 128 0 0 0-90.5 37.5L536.9 810.7a42.7 42.7 0 0 1-57.5 2.6l-70-58.3A128 128 0 0 0 327.5 725.3H213.3a42.7 42.7 0 0 1-42.7-42.7V256z m128 128a42.7 42.7 0 0 1 42.7-42.7h341.3a42.7 42.7 0 1 1 0 85.3H341.3a42.7 42.7 0 0 1-42.7-42.7z m0 170.7a42.7 42.7 0 0 1 42.7-42.7h213.3a42.7 42.7 0 1 1 0 85.3H341.3a42.7 42.7 0 0 1-42.7-42.7z" fill="#333333" p-id="581"></path></svg>