<svg xmlns="http://www.w3.org/2000/svg" viewBox="0 0 1024 1024" version="1.1"><path d="M504.6 148.5l-198.1 280.7a42.7 42.7 0 0 0-7.8 24.6V768a42.7 42.7 0 0 0 42.7 42.7h411.6a42.7 42.7 0 0 0 39.6-26.8l100.4-251.1c2-5 3.1-10.4 3.1-15.8V469.3a42.7 42.7 0 0 0-42.7-42.7h-168a128 128 0 0 1-124.2-159.1l20.9-83.5a43.4 43.4 0 0 0-22.9-48.8c-19.2-9.6-42.6-3.6-54.5 13.2zM226.6 396.9a128 128 0 0 1 10.1-16.9l198.1-280.7a128.7 128.7 0 0 1 162.4-40.4A128.7 128.7 0 0 1 664.7 204.8l-20.9 83.5A42.7 42.7 0 0 0 685.3 341.3H853.3a128 128 0 0 1 128 128v47.6c0 16.3-3.1 32.4-9.2 47.5l-100.4 251.1A128 128 0 0 1 752.9 896H341.3c-32.8 0-62.7-12.3-85.3-32.6A128 128 0 0 1 42.7 768v-256a128 128 0 0 1 184-115.1zM213.3 512a42.7 42.7 0 1 0-85.3 0v256a42.7 42.7 0 1 0 85.3 0v-256z" fill="#333333" p-id="1099"></path></svg>