<svg xmlns="http://www.w3.org/2000/svg" viewBox="0 0 1024 1024" version="1.1"><path d="M938.7 768c0 117.8-95.5 170.7-213.3 170.7a42.7 42.7 0 1 1 0-85.3c55.8 0 103.2-9.1 120.7-47.6A128 128 0 0 1 810.7 810.7h-42.7a128 128 0 0 1-128-128v-85.3a128 128 0 0 1 128-128h42.7a128 128 0 0 1 40.8 6.6 341.4 341.4 0 0 0-678.9 0c12.8-4.3 26.5-6.6 40.8-6.6h42.7a128 128 0 0 1 128 128v85.3a128 128 0 0 1-128 128H213.3a128 128 0 0 1-128-128v-170.7C85.3 276.4 276.4 85.3 512 85.3s426.7 191 426.7 426.7v256z m-85.3-170.7a42.7 42.7 0 0 0-42.7-42.7h-42.7a42.7 42.7 0 0 0-42.7 42.7v85.3a42.7 42.7 0 0 0 42.7 42.7h42.7a42.7 42.7 0 0 0 42.7-42.7v-85.3zM213.3 554.7a42.7 42.7 0 0 0-42.7 42.7v85.3a42.7 42.7 0 0 0 42.7 42.7h42.7a42.7 42.7 0 0 0 42.7-42.7v-85.3a42.7 42.7 0 0 0-42.7-42.7H213.3z" fill="#333333" p-id="813"></path></svg>