<svg xmlns="http://www.w3.org/2000/svg" viewBox="0 0 1024 1024" version="1.1"><path d="M538.2 202.4a42.7 42.7 0 0 0-52.4 0L213.3 414.3V768a42.7 42.7 0 0 0 42.7 42.7h108.2A170.7 170.7 0 0 1 512 554.7h128a42.7 42.7 0 0 1 42.7 42.7v128a169.8 169.8 0 0 1-22.8 85.3H768a42.7 42.7 0 0 0 42.7-42.7V414.3l-272.5-211.9zM512 896H256a128 128 0 0 1-128-128v-298.7a42.6 42.6 0 0 1-26.2-76.4l331.6-257.9a128 128 0 0 1 157.2 0l331.6 257.9A42.7 42.7 0 0 1 896 469.3V768a128 128 0 0 1-128 128h-256z m0-85.3a85.3 85.3 0 0 0 85.3-85.3v-85.3h-85.3a85.3 85.3 0 0 0 0 170.7z" fill="#333333" p-id="515"></path></svg>