<svg xmlns="http://www.w3.org/2000/svg" viewBox="0 0 1024 1024" version="1.1"><path d="M384 213.3v42.7h256V213.3a42.7 42.7 0 0 0-42.7-42.7h-170.7a42.7 42.7 0 0 0-42.7 42.7zM298.7 256V213.3a128 128 0 0 1 128-128h170.7a128 128 0 0 1 128 128v42.7h170.7a42.7 42.7 0 1 1 0 85.3h-42.7v469.3a128 128 0 0 1-128 128H298.7a128 128 0 0 1-128-128V341.3H128a42.7 42.7 0 0 1 0-85.3h170.7z m384 85.3H256v469.3a42.7 42.7 0 0 0 42.7 42.7h426.7a42.7 42.7 0 0 0 42.7-42.7V341.3h-85.3z m-256 128a42.7 42.7 0 0 1 42.7 42.7v170.7a42.7 42.7 0 1 1-85.3 0v-170.7a42.7 42.7 0 0 1 42.7-42.7z m213.3 42.7a42.7 42.7 0 1 0-85.3 0v170.7a42.7 42.7 0 1 0 85.3 0v-170.7z" fill="#333333" p-id="658"></path></svg>