<svg xmlns="http://www.w3.org/2000/svg" viewBox="0 0 1024 1024" version="1.1"><path d="M405.3 128a64 64 0 1 0 0 128h213.3a64 64 0 0 0 0-128h-213.3zM128 298.7a128 128 0 0 1 128-128h21.3a42.7 42.7 0 0 1 0 85.3H256a42.7 42.7 0 0 0-42.7 42.7v512a42.7 42.7 0 0 0 42.7 42.7h512a42.7 42.7 0 0 0 42.7-42.7V298.7a42.7 42.7 0 0 0-42.7-42.7h-21.3a42.7 42.7 0 1 1 0-85.3h21.3a128 128 0 0 1 128 128v512a128 128 0 0 1-128 128H256a128 128 0 0 1-128-128V298.7z m170.7 85.3a42.7 42.7 0 0 1 42.7-42.7h341.3a42.7 42.7 0 1 1 0 85.3H341.3a42.7 42.7 0 0 1-42.7-42.7z m0 170.7a42.7 42.7 0 0 1 42.7-42.7h341.3a42.7 42.7 0 1 1 0 85.3H341.3a42.7 42.7 0 0 1-42.7-42.7z m42.7 128a42.7 42.7 0 1 0 0 85.3h128a42.7 42.7 0 1 0 0-85.3H341.3z" fill="#333333" p-id="559"></path></svg>