<svg xmlns="http://www.w3.org/2000/svg" viewBox="0 0 1024 1024" version="1.1"><path d="M612.4 163.7a40.8 40.8 0 0 1 20.7-6.7c6.7-0.2 16.2 1.5 29.2 8.5 12.6 6.8 32 28.9 37 59.7 4.6 27.5-1.9 65.4-45.7 106.2l-0.4 0.4a271.7 271.7 0 0 0-101.4-11.7 42.7 42.7 0 1 0 5.7 85.2c82.3-5.5 142.8 38.2 185.8 101.8 43.4 64.1 64.6 142.5 67.3 190.1-0.4 83.2-44.4 132-104.3 161.7-62.6 31.1-140.1 39.3-192.2 36.7l-1.1-0H512c-147.5 0-219.3-36-255.1-73.3C221.1 784.8 213.3 737.6 213.3 696c0-184.7 116.9-256 179.7-269.7A42.7 42.7 0 0 0 426.7 383.6 42.7 42.7 0 0 0 384 341.3c-36.9 0-58.1-17.2-67-34.7-9.1-17.9-7.9-40.4 8.2-59.2a13.1 13.1 0 0 1 3-2.3c22.2-13.5 36.8-15.7 45.9-15.1 9 0.6 17.6 4.2 27.3 11.5 23.6 17.9 52.7 29.9 83.5 27.5 32.4-2.6 60-20.5 78.4-49.3 16.8-26.2 32.8-46.1 49.2-56.1zM240.9 345.3c8.2 16.2 19.5 30.7 33.5 42.8C198.8 440.5 128 538 128 696c0 50.7 9.3 124.6 67.3 185.2 58 60.6 156.5 99.5 315.6 99.7 61.7 3 154.2-6.2 233.4-45.5C826.3 894.5 896 819.6 896 696v-1.1l-0-1.1c-3.2-62.1-29-156.5-82-234.7-21.8-32.1-48.9-62.4-81.5-86.5 46.2-52.9 59.6-110 51.1-161.3-9-54.8-43.1-100.5-80.6-120.8-23.9-13-48-19.5-72.1-18.9a126 126 0 0 0-63.1 19.3c-34.2 21-59 55.6-76.4 82.8-5.8 9-10.5 10-13.2 10.2-4.3 0.3-13.1-1.2-25.3-10.4-18.6-14.1-43-26.8-73.6-28.7-30.6-1.9-62.4 7.3-95.5 27.4-7.9 4.8-16.2 11.2-23.4 19.6-39.2 45.6-44 105.4-19.5 153.5z m173.2 136.5a42.7 42.7 0 0 0-60.3 60.3L409 597.3H384a42.7 42.7 0 1 0 0 85.3h85.3v128a42.7 42.7 0 1 0 85.3 0v-128h85.3a42.7 42.7 0 1 0 0-85.3h-25l55.2-55.2a42.7 42.7 0 0 0-60.3-60.3l-67.7 67.7a42.7 42.7 0 0 1-60.3 0l-67.7-67.7z" fill="#333333" p-id="1044"></path></svg>